<?xml version="1.0" encoding="UTF-8" standalone="no"?>
<svg
   xmlns:dc="http://purl.org/dc/elements/1.1/"
   xmlns:cc="http://creativecommons.org/ns#"
   xmlns:rdf="http://www.w3.org/1999/02/22-rdf-syntax-ns#"
   xmlns:svg="http://www.w3.org/2000/svg"
   xmlns="http://www.w3.org/2000/svg"
   xmlns:sodipodi="http://sodipodi.sourceforge.net/DTD/sodipodi-0.dtd"
   xmlns:inkscape="http://www.inkscape.org/namespaces/inkscape"
   version="1.1"
   id="Layer_1"
   x="0px"
   y="0px"
   viewBox="0 0 18 18"
   style="enable-background:new 0 0 18 18;"
   xml:space="preserve"
   sodipodi:docname="logo.svg"
   inkscape:version="0.92.4 (5da689c313, 2019-01-14)"><metadata
   id="metadata10"><rdf:RDF><cc:Work
       rdf:about=""><dc:format>image/svg+xml</dc:format><dc:type
         rdf:resource="http://purl.org/dc/dcmitype/StillImage" /><dc:title /></cc:Work></rdf:RDF></metadata><defs
   id="defs8"><clipPath
     clipPathUnits="userSpaceOnUse"
     id="clipPath842"><rect
       style="fill:none;fill-opacity:1;stroke:#800000;stroke-width:0.1187311;stroke-linecap:round"
       id="rect844"
       width="15.35203"
       height="15.352032"
       x="1.0054041"
       y="1.1642021"
       ry="1.5394796" /></clipPath></defs><sodipodi:namedview
   pagecolor="#ffffff"
   bordercolor="#666666"
   borderopacity="1"
   objecttolerance="10"
   gridtolerance="10"
   guidetolerance="10"
   inkscape:pageopacity="0"
   inkscape:pageshadow="2"
   inkscape:window-width="1920"
   inkscape:window-height="1017"
   id="namedview6"
   showgrid="false"
   inkscape:zoom="26.222222"
   inkscape:cx="14.092239"
   inkscape:cy="11.614185"
   inkscape:window-x="-8"
   inkscape:window-y="-8"
   inkscape:window-maximized="1"
   inkscape:current-layer="Layer_1" />



<path
   style="fill:#0093ed;fill-opacity:1;stroke:none;stroke-width:0.99663854"
   d="M 0.68141913,0.8402179 V 16.840218 H 16.681419 V 0.8402179 Z M 11.245893,3.1963958 a 0.98732455,1.0062416 0 0 1 1.000723,1.0198969 v 2.4937362 a 0.98732455,1.0062416 0 1 1 -1.974452,0 V 4.2162927 A 0.98732455,1.0062416 0 0 1 11.245893,3.1963958 Z M 3.0222241,6.9949712 a 0.98732455,1.0062416 0 0 1 0.912027,0.6543847 C 4.9278303,10.24342 6.781667,11.254027 8.6428556,11.198362 10.504045,11.142692 12.395323,9.9529099 13.318682,7.6356001 a 0.98770611,1.0066305 0 0 1 1.829837,0.7585359 c -1.194194,2.997023 -3.789427,4.735031 -6.4478182,4.814542 -2.6583904,0.07951 -5.3569075,-1.567317 -6.6059291,-4.8282978 a 0.98732455,1.0062416 0 0 1 0.9274524,-1.385409 z"
   id="rect24"
   inkscape:connector-curvature="0"
   clip-path="url(#clipPath842)"
   transform="matrix(1.0422075,0,0,1.0422075,0.03383564,-0.20134558)" /><path
   style="color:#000000;font-style:normal;font-variant:normal;font-weight:normal;font-stretch:normal;font-size:medium;line-height:normal;font-family:sans-serif;font-variant-ligatures:normal;font-variant-position:normal;font-variant-caps:normal;font-variant-numeric:normal;font-variant-alternates:normal;font-feature-settings:normal;text-indent:0;text-align:start;text-decoration:none;text-decoration-line:none;text-decoration-style:solid;text-decoration-color:#000000;letter-spacing:normal;word-spacing:normal;text-transform:none;writing-mode:lr-tb;direction:ltr;text-orientation:mixed;dominant-baseline:auto;baseline-shift:baseline;text-anchor:start;white-space:normal;shape-padding:0;clip-rule:nonzero;display:inline;overflow:visible;visibility:visible;opacity:1;isolation:auto;mix-blend-mode:normal;color-interpolation:sRGB;color-interpolation-filters:linearRGB;solid-color:#000000;solid-opacity:1;vector-effect:none;fill:#ffffff;fill-opacity:1;fill-rule:nonzero;stroke:none;stroke-width:2;stroke-linecap:round;stroke-linejoin:miter;stroke-miterlimit:4;stroke-dasharray:none;stroke-dashoffset:0;stroke-opacity:1;color-rendering:auto;image-rendering:auto;shape-rendering:auto;text-rendering:auto;enable-background:accumulate"
   d="M 6.2382812,3.2578125 A 1.0001,1.0001 0 0 0 5.2539062,4.2714844 V 6.75 a 1.0001,1.0001 0 1 0 2,0 V 4.2714844 A 1.0001,1.0001 0 0 0 6.2382812,3.2578125 Z"
   id="path4539"
   inkscape:connector-curvature="0" /></svg>